<svg width="789" height="166" viewBox="0 0 789 166" fill="none" xmlns="http://www.w3.org/2000/svg">
<path fill-rule="evenodd" clip-rule="evenodd" d="M165.144 71.6365H0V51.3638H165.542C164.206 54.5729 163.479 58.1441 163.479 62.0289C163.479 65.7123 164.077 68.885 165.144 71.6365Z" fill="#F8D241"/>
<path fill-rule="evenodd" clip-rule="evenodd" d="M165.896 71.6365H165.146C164.079 68.885 163.48 65.7123 163.48 62.0289C163.48 58.1441 164.208 54.5729 165.544 51.3638H166.29C164.956 54.5759 164.229 58.1365 164.229 62.0304C164.229 65.7123 164.82 68.8789 165.896 71.6365Z" fill="#F8D241"/>
<path fill-rule="evenodd" clip-rule="evenodd" d="M200.036 92.3771H0V71.6362H165.144C170.465 85.3544 187.441 88.612 200.036 92.3771Z" fill="#DB315D"/>
<path fill-rule="evenodd" clip-rule="evenodd" d="M200.771 92.3771H200.035C187.44 88.612 170.464 85.3544 165.143 71.6362H165.893V71.6514C171.226 85.3483 188.18 88.6059 200.771 92.3771Z" fill="#DB315D"/>
<path fill-rule="evenodd" clip-rule="evenodd" d="M197.971 114.141C187.77 113.979 180.356 108.873 177.362 100.452L159.674 110.723C159.974 111.399 160.294 112.062 160.63 112.712H0V92.3774H200.036C208.277 94.8426 214.642 97.5229 214.642 103.494C214.642 110.937 207.908 114.009 199.07 114.141L199.015 114.137C198.879 114.137 198.742 114.137 198.606 114.121C198.439 114.137 198.258 114.137 198.076 114.137L197.971 114.141Z" fill="#B9234A"/>
<path fill-rule="evenodd" clip-rule="evenodd" d="M199.212 114.153L199.069 114.141C207.907 114.009 214.642 110.937 214.642 103.494C214.642 97.5229 208.277 94.8426 200.036 92.3774H200.772C209.015 94.8487 215.378 97.5305 215.378 103.5C215.378 111.106 208.348 114.153 199.212 114.153ZM197.727 114.153C187.56 114.153 180.106 109.288 176.894 101.152L160.424 110.727C160.727 111.394 161.045 112.061 161.378 112.712H160.63C160.294 112.062 159.974 111.399 159.674 110.723L177.362 100.452C180.356 108.873 187.769 113.979 197.971 114.141L197.727 114.153Z" fill="#B9234A"/>
<path fill-rule="evenodd" clip-rule="evenodd" d="M198.939 133H0V112.712H160.63C167.126 125.241 180.394 132.976 198.474 132.976C198.626 132.976 198.776 132.976 198.926 132.974L198.939 133Z" fill="#DA2D46"/>
<path fill-rule="evenodd" clip-rule="evenodd" d="M198.473 132.976C180.393 132.976 167.124 125.241 160.629 112.712H161.377C167.817 125.121 180.893 132.833 198.711 132.969H198.923L198.924 132.974C198.774 132.976 198.624 132.976 198.473 132.976Z" fill="#DA2D46"/>
<path fill-rule="evenodd" clip-rule="evenodd" d="M165.542 51.3642H0V32.9551H196.655C182.192 33.4293 170.188 40.2187 165.542 51.3642Z" fill="#DF5431"/>
<path fill-rule="evenodd" clip-rule="evenodd" d="M166.288 51.3642H165.543C170.188 40.2187 182.193 33.4293 196.655 32.9551H197.228C182.849 33.4854 170.91 40.2581 166.288 51.3642Z" fill="#DF5431"/>
<path fill-rule="evenodd" clip-rule="evenodd" d="M265.155 8.771L244.614 14.8574V100.832C244.614 125.557 257.167 134.307 288.74 130.504V112.053C273.144 112.815 265.155 113.004 265.155 100.832V55.1816H288.74V35.3998H265.155V8.771ZM184.4 61.6488C184.4 54.8018 190.866 51.5685 198.284 51.5685C206.083 51.5685 212.739 54.9928 216.162 62.4094L233.471 52.7094C226.815 40.1564 213.88 32.9276 198.284 32.9276C178.883 32.9276 163.478 44.1488 163.478 62.0291C163.478 81.9975 181.076 86.9834 195.63 91.107C205.893 94.0147 214.642 96.4937 214.642 103.494C214.642 111.103 207.604 114.146 198.474 114.146C188.013 114.146 180.406 109.011 177.362 100.452L159.674 110.723C165.76 124.417 179.454 132.976 198.474 132.976C219.016 132.976 235.563 122.705 235.563 103.685C235.563 83.003 217.888 78.0908 203.315 74.041C193.094 71.2005 184.4 68.7842 184.4 61.6488ZM322.334 51.3775C328.04 38.4442 339.643 33.6881 351.625 33.6881V55.9427C338.122 54.9927 322.334 61.2684 322.334 82.5715V130.505H301.793V35.4003H322.334V51.3775ZM372.652 74.9624C375.505 60.6973 385.966 51.567 401.372 51.567C413.734 51.567 425.717 58.6049 428.571 74.9624H372.652ZM401.563 32.9276C371.701 32.9276 351.349 54.8018 351.349 82.9518C351.349 111.484 371.701 132.976 403.084 132.976C421.724 132.976 435.989 125.178 444.737 112.244L427.81 102.352C423.245 109.011 414.686 114.146 403.274 114.146C388.058 114.146 376.075 106.538 372.842 91.7003H448.542C448.922 89.0382 449.302 85.9958 449.302 83.1428C449.302 55.7534 429.902 32.9276 401.563 32.9276ZM786.356 49.094L742.041 111.103H788.257V130.505H714.08V116.808L758.586 54.8016H715.982V35.4001H786.356V49.094ZM665.247 30.9242C653.811 30.9242 643.702 36.5802 636.688 42.8151C629.693 36.5802 619.629 30.9242 608.256 30.9242C584.885 30.9242 569.182 44.6423 569.182 65.056V130.504H590.43V68.7999C590.43 61.6908 593.523 50.9833 608.256 50.9833C622.991 50.9833 626.083 61.6908 626.083 68.7999V130.504H647.42V68.7999C647.42 61.6908 650.512 50.9833 665.247 50.9833C679.98 50.9833 683.074 61.6908 683.074 68.7999V130.504H704.179V65.056C704.179 44.6423 688.534 30.9242 665.247 30.9242ZM508.126 113.02H508.127C524.873 113.02 537.814 100.268 537.814 82.9517C537.814 65.6335 524.871 52.885 508.126 52.885C491.38 52.885 478.441 65.6335 478.441 82.9517C478.441 100.268 491.38 113.02 508.126 113.02ZM508.126 32.9032C536.098 32.9032 558.314 53.9502 558.314 82.3047V130.526H537.762V120.746C529.482 127.961 519.256 133 508.126 133C480.342 133 457.889 111.117 457.889 82.9517C457.889 54.5971 480.342 32.9032 508.126 32.9032Z" fill="#FFFFFE"/>
<path fill-rule="evenodd" clip-rule="evenodd" d="M165.546 51.3638L165.527 51.4077L165.546 51.3638Z" fill="#DF5431"/>
</svg>