<svg class="browser-message__icon" width="24" height="24" viewBox="0 0 24 24" fill="none" xmlns="http://www.w3.org/2000/svg" focusable="false" aria-hidden="true"><path fill-rule="evenodd" clip-rule="evenodd" d="M12 5.92a6.11 6.11 0 016.1 6.11c0 3.33-2.78 6.1-6.1 6.11a6.11 6.11 0 01-6.12-6.11c0-3.33 2.79-6.11 6.11-6.11zm.03 14.98a8.87 8.87 0 100-17.73 8.87 8.87 0 000 17.73zm1.38-5.96a1.44 1.44 0 10-2.88 0 1.44 1.44 0 002.88 0zm-2.88-2.35h2.92V9.13a1.46 1.46 0 00-2.92.02v3.44z" fill="#fff"/></svg>