<svg id="icon-gift" xmlns="http://www.w3.org/2000/svg" fill="none" viewBox="0 0 480 480"><path fill="currentcolor" fill-rule="evenodd" d="M97 147h290v204c0 16.569-13.431 30-30 30H127c-16.569 0-30-13.431-30-30V147Zm60 60v114h170V207H157Z" clip-rule="evenodd"/><rect width="370" height="60" x="63" y="147" fill="currentcolor" rx="30"/><path fill="currentcolor" fill-rule="evenodd" d="M174.5 82a22.501 22.501 0 0 0-15.91 38.41A22.504 22.504 0 0 0 174.5 127h47.31c-1.831-4.791-4.149-10.059-7.016-15.271C205.36 94.575 192.408 82 174.5 82Zm67.5 60c14.709-2.942 14.708-2.947 14.707-2.952l-.003-.013-.006-.029-.016-.081-.051-.241a111.27 111.27 0 0 0-.826-3.545 159.105 159.105 0 0 0-2.669-9.386c-2.42-7.643-6.286-17.993-12.055-28.482C229.89 76.925 209.091 52 174.5 52a52.5 52.5 0 0 0 0 105H242a15 15 0 0 0 14.709-17.942L242 142Z" clip-rule="evenodd"/><path fill="currentcolor" fill-rule="evenodd" d="M242.919 97.271C254.11 76.925 274.909 52 309.5 52a52.5 52.5 0 0 1 0 105H242a15 15 0 0 1-14.709-17.942L242 142c-14.709-2.942-14.708-2.947-14.707-2.952l.003-.013.006-.029.016-.081.051-.241a111.27 111.27 0 0 1 .826-3.545c.577-2.308 1.45-5.538 2.669-9.386 2.42-7.643 6.286-17.993 12.055-28.482ZM262.19 127h47.31a22.504 22.504 0 0 0 22.5-22.5A22.502 22.502 0 0 0 309.5 82c-17.908 0-30.86 12.575-40.294 29.729-2.867 5.212-5.185 10.48-7.016 15.271Zm-5.486 17.967v-.001.001Z" clip-rule="evenodd"/><path fill="currentcolor" fill-rule="evenodd" d="M126.77 56.77A67.501 67.501 0 0 1 174.5 37c31.673 0 53.429 16.926 67.5 34.593C256.071 53.926 277.827 37 309.5 37a67.501 67.501 0 0 1 47.73 115.23A67.504 67.504 0 0 1 309.5 172h-135a67.504 67.504 0 0 1-47.73-19.77 67.504 67.504 0 0 1 0-95.46ZM174.5 67a37.501 37.501 0 0 0 0 75h135a37.5 37.5 0 0 0 0-75c-26.214 0-43.097 18.699-53.437 37.5-.278.504-.55 1.008-.818 1.513a15.001 15.001 0 0 1-26.49 0 106.35 106.35 0 0 0-.818-1.513C217.597 85.699 200.714 67 174.5 67Z" clip-rule="evenodd"/><path fill="currentcolor" d="M210 152h60v188h-60z"/></svg>