<svg width="454" height="166" viewBox="0 0 454 166" fill="none" xmlns="http://www.w3.org/2000/svg">
<path fill="#fff" fill-rule="evenodd" clip-rule="evenodd" d="M196.18 96.9l14.5-36.7 14.29 36.7h-28.8zM219.92 39c-1.8-4.02-4.8-5.99-9.15-5.99-4.33 0-7.47 2.11-9.06 6.1l-33.58 81.86c-.3.85-.75 2.14-.75 3.9 0 4.56 3.92 8.13 8.93 8.13 3.8 0 6.3-1.82 7.87-5.74l5.7-14.42h41.29l5.7 14.68c2 4.53 5.36 5.48 7.83 5.48 5.15 0 9.34-3.89 9.34-8.66 0-1.4-.42-2.93-.8-3.9l-33.32-81.45zM312.23 33c-4.5 0-6.43 2.58-7.84 5.38v.02l-22.65 40.3-24.07-40.98c-2.49-4.23-5.32-4.72-7.23-4.72-5.02 0-9.07 4.6-9.07 8.4 0 1.8.56 3.68 1.57 5.3l29.93 50.46v26.9c0 5.5 3.38 8.93 8.8 8.93 5.43 0 8.8-3.42 8.8-8.93V97.15l.08-.14 28.38-49.1c1.16-2 2.23-4.16 2.23-6.5 0-4.24-4.42-8.4-8.93-8.4zM148.8 116.43h-26.5V41.61c0-5.47-3.18-8.61-8.74-8.61-5.56 0-8.74 3.14-8.74 8.61v91.24h43.98c5.39 0 8.48-3 8.48-8.2 0-5.22-3.1-8.22-8.48-8.22zM62.22 79.75H42.97v23.01c0 7.06-5.74 12.8-12.8 12.8-7.07 0-12.81-5.74-12.81-12.8v-52.4h44.86c8.1 0 14.7 6.59 14.7 14.7 0 8.1-6.6 14.69-14.7 14.69zm0-46.75H0v69.76a30.17 30.17 0 1060.33 0V97.1h1.89a32.05 32.05 0 100-64.1z"/>
<path fill="#FA00B4" fill-rule="evenodd" clip-rule="evenodd" d="M416.04 66.7h-37.28v-6.55h54.9a16.57 16.57 0 000-33.15h-83.03v72.21h73.35v6.54h-68.84a16.58 16.58 0 000 33.15h60.9a36.1 36.1 0 100-72.2z"/>
</svg>