<svg width="468" height="166" viewBox="0 0 468 166" fill="none" xmlns="http://www.w3.org/2000/svg">
<path fill="#ffffff" fill-rule="evenodd" clip-rule="evenodd" d="M197.18 96.9l14.5-36.7 14.29 36.7h-28.8zM220.92 39c-1.8-4.02-4.8-5.98-9.15-5.98-4.33 0-7.47 2.11-9.06 6.1l-33.58 81.86c-.3.85-.75 2.14-.75 3.9 0 4.56 3.92 8.13 8.93 8.13 3.8 0 6.3-1.82 7.87-5.74l5.7-14.42h41.29l5.7 14.68c2 4.53 5.36 5.48 7.83 5.48 5.15 0 9.34-3.89 9.34-8.66 0-1.4-.42-2.94-.8-3.9l-33.32-81.45zm92.31-5.98c-4.5 0-6.43 2.58-7.84 5.37v.03l-22.65 40.3-24.07-40.99c-2.49-4.22-5.32-4.7-7.23-4.7-5.02 0-9.07 4.59-9.07 8.39 0 1.8.56 3.68 1.57 5.3l29.93 50.46v26.9c0 5.5 3.38 8.93 8.8 8.93 5.43 0 8.8-3.42 8.8-8.93V97.15l.08-.14 28.38-49.1c1.16-2 2.23-4.16 2.23-6.5 0-4.24-4.42-8.4-8.93-8.4zM149.8 116.43h-26.5V41.61c0-5.47-3.18-8.61-8.74-8.61-5.56 0-8.74 3.14-8.74 8.61v91.24h43.98c5.39 0 8.48-3 8.48-8.2 0-5.23-3.1-8.22-8.48-8.22zM63.22 79.74H43.97v23.02c0 7.06-5.74 12.8-12.8 12.8-7.07 0-12.81-5.74-12.81-12.8v-52.4h44.86a14.7 14.7 0 010 29.39zm0-46.74H1v69.76a30.17 30.17 0 1060.33 0V97.1h1.89a32.05 32.05 0 100-64.1z"/>
<path fill="#F50A00" fill-rule="evenodd" clip-rule="evenodd" d="M339.8 115.02l14.64-81.43c1.48-8.29 9.54-13.82 17.98-12.36 8.44 1.46 14.08 9.36 12.59 17.65l-14.63 81.43c-1.5 8.28-9.54 13.81-17.99 12.35-8.44-1.46-14.07-9.36-12.58-17.64zM432 90.35l-11.17 62.14c-1.49 8.29-9.54 13.82-17.98 12.36-8.44-1.46-14.08-9.36-12.59-17.65l11.17-62.14c1.49-8.28 9.54-13.82 17.98-12.35a15.26 15.26 0 0112.59 17.64zm.8 20.26a9.96 9.96 0 0111.56-7.95 9.8 9.8 0 018.1 11.35l-1.93 10.71a9.96 9.96 0 01-11.56 7.94 9.81 9.81 0 01-8.09-11.34l1.93-10.71zm-43.32 16l2.7-15a7.63 7.63 0 00-6.3-8.83 7.75 7.75 0 00-9 6.18l-2.69 15a7.63 7.63 0 006.3 8.82 7.75 7.75 0 008.99-6.18z"/>
</svg>