<svg xmlns="http://www.w3.org/2000/svg" style="display: none"><symbol id="icon-facebook" viewBox="0 0 9 18"><path d="M5.516 5.828V3.96c0-.701.465-.865.792-.865h2.01V.011L5.55 0C2.477 0 1.777 2.3 1.777 3.772v2.056H0v3.178h1.777V18h3.74V9.006h2.521l.327-3.178H5.516z" fill="currentColor" fill-rule="evenodd"/></symbol><symbol id="icon-twitter" viewBox="0 0 20 18"><path d="M20 2.07a7.602 7.602 0 0 1-2.36.696 4.386 4.386 0 0 0 1.81-2.44A8.223 8.223 0 0 1 16.838 1.4C16.092.538 15.022 0 13.846 0c-2.267 0-4.103 1.976-4.103 4.418 0 .343.035.683.103 1.002C6.443 5.244 3.415 3.479 1.39.811a4.657 4.657 0 0 0-.553 2.22c0 1.53.723 2.89 1.826 3.67a3.87 3.87 0 0 1-1.859-.548v.06c0 2.136 1.414 3.919 3.29 4.332-.343.1-.706.145-1.083.145-.264 0-.514-.018-.767-.078.52 1.76 2.036 3.04 3.831 3.066-1.404 1.191-3.173 1.89-5.095 1.89-.332 0-.66-.019-.98-.06C1.815 16.765 3.968 17.5 6.29 17.5c7.546 0 11.675-6.733 11.675-12.57 0-.187-.004-.376-.013-.565A8.945 8.945 0 0 0 20 2.071" fill="currentColor" fill-rule="evenodd"/></symbol><symbol id="icon-whatsapp" viewBox="0 0 16 16"><path d="M7.998 0h.004C12.412 0 16 3.59 16 8s-3.587 8-7.998 8a7.936 7.936 0 0 1-4.4-1.321l-3.075.982.996-2.972A7.941 7.941 0 0 1 0 7.999C0 3.59 3.587 0 7.998 0zM5.764 4.064c-.155-.372-.272-.386-.507-.396-.08-.004-.17-.009-.268-.009-.306 0-.626.09-.819.287-.235.24-.818.8-.818 1.947 0 1.148.837 2.258.95 2.413.118.155 1.632 2.544 3.982 3.518 1.839.762 2.384.691 2.803.602.61-.132 1.377-.584 1.57-1.129.193-.546.193-1.011.136-1.11-.056-.099-.211-.155-.446-.273-.235-.117-1.378-.682-1.594-.757-.212-.08-.414-.052-.574.174-.225.315-.446.635-.625.828-.141.15-.372.17-.564.09-.259-.109-.983-.363-1.876-1.158-.692-.616-1.162-1.382-1.298-1.613-.136-.235-.014-.371.094-.498.118-.146.23-.25.348-.386.117-.136.183-.207.259-.367.08-.155.023-.315-.033-.433-.057-.117-.527-1.265-.72-1.73z" fill="currentColor" fill-rule="evenodd"/></symbol><symbol id="icon-instagram" viewBox="0 0 18 18"><path d="M9 0c2.444 0 2.75.01 3.71.054.959.044 1.613.196 2.185.419.592.23 1.094.537 1.594 1.038.5.5.808 1.002 1.038 1.594.223.572.375 1.226.419 2.184C17.99 6.25 18 6.556 18 9s-.01 2.75-.054 3.71c-.044.959-.196 1.613-.419 2.185a4.412 4.412 0 0 1-1.038 1.594c-.5.5-1.002.809-1.594 1.039-.572.222-1.226.374-2.184.418C11.75 17.99 11.444 18 9 18s-2.75-.01-3.71-.054c-.959-.044-1.613-.196-2.185-.418a4.412 4.412 0 0 1-1.594-1.039c-.5-.5-.809-1.002-1.039-1.594-.222-.572-.374-1.226-.418-2.184C.01 11.75 0 11.444 0 9s.01-2.75.054-3.71C.098 4.33.25 3.676.472 3.104A4.412 4.412 0 0 1 1.511 1.51c.5-.5 1.002-.808 1.594-1.038C3.677.25 4.33.098 5.289.054 6.25.01 6.556 0 9 0zm0 1.622c-2.403 0-2.688.009-3.637.052-.877.04-1.354.187-1.67.31-.421.163-.72.358-1.036.673-.315.315-.51.615-.673 1.035-.123.317-.27.794-.31 1.671-.043.95-.052 1.234-.052 3.637s.009 2.688.052 3.637c.04.877.187 1.354.31 1.671.163.42.358.72.673 1.035.315.315.615.51 1.035.673.317.123.794.27 1.671.31.95.043 1.234.052 3.637.052s2.688-.009 3.637-.052c.877-.04 1.354-.187 1.67-.31.421-.163.72-.358 1.036-.673.315-.315.51-.615.673-1.035.123-.317.27-.794.31-1.671.043-.95.052-1.234.052-3.637s-.009-2.688-.052-3.637c-.04-.877-.187-1.354-.31-1.67a2.788 2.788 0 0 0-.673-1.036 2.789 2.789 0 0 0-1.035-.673c-.317-.123-.794-.27-1.671-.31-.95-.043-1.234-.052-3.637-.052zm0 2.756a4.622 4.622 0 1 1 0 9.244 4.622 4.622 0 0 1 0-9.244zM9 12a3 3 0 1 0 0-6 3 3 0 0 0 0 6zm5.884-7.804a1.08 1.08 0 1 1-2.16 0 1.08 1.08 0 0 1 2.16 0z" fill="currentColor" fill-rule="evenodd"/></symbol><symbol id="icon-youtube" viewBox="0 0 20 15" xmlns="http://www.w3.org/2000/svg"><path d="M7.935 9.628v-5.62l5.403 2.82-5.403 2.8zM19.8 3.034s-.196-1.378-.795-1.985c-.76-.797-1.613-.8-2.004-.846C14.202 0 10.004 0 10.004 0h-.008S5.797 0 2.999.203c-.392.046-1.243.05-2.005.846C.395 1.656.2 3.034.2 3.034S0 4.654 0 6.271V7.79c0 1.618.2 3.237.2 3.237s.195 1.378.794 1.985c.762.797 1.761.771 2.206.855 1.6.153 6.8.2 6.8.2s4.203-.005 7.001-.208c.39-.047 1.243-.05 2.004-.847.6-.607.795-1.985.795-1.985s.2-1.619.2-3.237V6.27c0-1.618-.2-3.237-.2-3.237z" fill="currentColor" fill-rule="evenodd"/></symbol><symbol id="icon-spotify" viewBox="0 0 20 22" xmlns="http://www.w3.org/2000/svg"><path d="M15.9 8.9C12.7 7 7.35 6.8 4.3 7.75c-.5.15-1-.15-1.15-.6-.15-.5.15-1 .6-1.15 3.55-1.05 9.4-.85 13.1 1.35.45.25.6.85.35 1.3-.25.35-.85.5-1.3.25m-.1 2.8c-.25.35-.7.5-1.05.25-2.7-1.65-6.8-2.15-9.95-1.15-.4.1-.85-.1-.95-.5-.1-.4.1-.85.5-.95C8 8.25 12.5 8.8 15.6 10.7c.3.15.45.65.2 1m-1.2 2.75c-.2.3-.55.4-.85.2-2.35-1.45-5.3-1.75-8.8-.95-.35.1-.65-.15-.75-.45-.1-.35.15-.65.45-.75 3.8-.85 7.1-.5 9.7 1.1.35.15.4.55.25.85M10 0C4.5 0 0 4.5 0 10s4.5 10 10 10 10-4.5 10-10S15.55 0 10 0" fill="currentColor" fill-rule="evenodd"/></symbol><symbol id="icon-person" viewBox="0 0 480 480" fill="none"><path fill-rule="evenodd" clip-rule="evenodd" d="M192.671 176.297C192.671 203.334 214.588 225.252 241.625 225.252C268.662 225.252 290.579 203.334 290.579 176.297C290.579 149.261 268.662 127.343 241.625 127.343C214.588 127.343 192.671 149.261 192.671 176.297ZM134.255 176.297C134.255 116.999 182.326 68.928 241.625 68.928C300.924 68.928 348.995 116.999 348.995 176.297C348.995 235.597 300.924 283.668 241.625 283.668C182.326 283.668 134.255 235.597 134.255 176.297ZM282.608 301.82C341.726 301.82 389.65 349.744 389.65 408.862H331.678C331.678 381.804 309.665 359.792 282.608 359.792H167.347V409.549H109.375V301.82H282.608Z" fill="currentColor"/></symbol><symbol id="icon-person-checkmark" viewBox="0 0 30 30" fill="none"><g clip-path="url(#icon-person-clip)" fill-rule="evenodd" clip-rule="evenodd"><path d="M15.1 14.08a3.06 3.06 0 110-6.12 3.06 3.06 0 010 6.12zm0-9.77a6.71 6.71 0 100 13.42 6.71 6.71 0 000-13.42zM15 22.49v-3.63H6.84v6.74h3.62v-3.11H15z" fill="currentColor"/><path d="M29.11 17.81a1.7 1.7 0 00-2.4 0l-4.53 4.53-1.9-1.91a1.7 1.7 0 10-2.4 2.4l3.74 3.75.56.57 6.93-6.93a1.7 1.7 0 000-2.4z" fill="#00F0C8"/></g><defs><clipPath id="icon-person-clip"><path fill="#fff" d="M0 0h30v30H0z"/></clipPath></defs></symbol><symbol id="icon-playlist" class="icon icon--playlist" viewBox="0 0 16 16" fill="none"><path fill-rule="evenodd" clip-rule="evenodd" d="M3.43786 8.71466C3.81849 9.0945 4.45199 9.07513 4.83179 8.6945L7.28273 6.25043L4.88509 3.83323C4.50636 3.45153 3.87666 3.42366 3.49496 3.8024C3.39546 3.9011 3.32379 4.01733 3.27843 4.14193C3.21559 4.28416 3.16969 4.45906 3.16976 4.6301L3.16632 6.26683L3.16976 7.89676V8.0301C3.16623 8.27866 3.24999 8.52723 3.43786 8.71466ZM8.50793 5.54211C7.90663 5.53965 7.42087 5.10118 7.42293 4.56271C7.425 4.02424 7.8988 3.58964 8.50007 3.5921L11.1288 3.60321L11.7739 3.61338C12.3751 3.61581 12.8609 4.05431 12.8588 4.59278C12.8568 5.13121 12.383 5.56581 11.7817 5.56339L11.1038 5.55225L8.50793 5.54211ZM7.42293 8.01829C7.42087 8.55676 7.90663 8.99526 8.50793 8.99769L10.6038 9.00783L11.7817 9.01897C12.383 9.02139 12.8568 8.58679 12.8588 8.04836C12.8609 7.5099 12.3751 7.0714 11.7739 7.06896L10.6288 7.0588L8.50007 7.04769C7.8988 7.04526 7.425 7.47983 7.42293 8.01829ZM3.15626 11.4739C3.1542 12.0123 3.63996 12.4508 4.24126 12.4533L7.57046 12.4634L11.7817 12.4746C12.383 12.477 12.8568 12.0424 12.8588 11.5039C12.8609 10.9655 12.3751 10.527 11.7739 10.5245L7.5955 10.5144L4.2334 10.5033C3.63213 10.5008 3.15833 10.9354 3.15626 11.4739Z" fill="currentColor"/></symbol><symbol id="icon-play" fill="none" viewBox="0 0 18 18"><path clip-rule="evenodd" d="m5.82263 10.7406 1.7694-1.63634-1.95701-2.11612c-.60049-.64935-.56077-1.66616.08858-2.26669.64931-.60052 1.66616-.56077 2.26668.08854l4.45582 4.81807-4.12477 3.81454c-.74486.6889-1.91137.6433-2.60028-.1016-.68892-.7449-.64335-1.9114.10158-2.6004zm3.97482 4.298 5.72065-5.29054-5.93178-6.41411c-1.41667-1.53184-3.80692-1.62521-5.33876-.20854-1.53188 1.41668-1.62525 3.80693-.20858 5.33877l.48094.52008-.17332.16028c-1.62762 1.50526-1.72684 4.04486-.22163 5.67246s4.04483 1.7268 5.67248.2216z" fill="currentColor" fill-rule="evenodd"/></symbol><symbol id="icon-search" viewBox="0 0 480 480"><path fill-rule="evenodd" clip-rule="evenodd" d="M228.061 314.125C180.521 314.125 141.982 275.586 141.982 228.046C141.982 180.506 180.521 141.967 228.061 141.967C275.602 141.967 314.14 180.506 314.14 228.046C314.14 275.586 275.602 314.125 228.061 314.125ZM397.63 352.758L365.402 319.593L350.803 304.499C364.586 282.331 372.556 256.172 372.556 228.147C372.556 148.173 307.725 83.3411 227.75 83.3411C147.777 83.3411 82.9454 148.173 82.9454 228.147C82.9454 308.121 147.777 372.953 227.75 372.953C256.104 372.953 282.549 364.796 304.881 350.713L318.753 365.115L350.803 398.095C362.058 409.633 381.623 408.796 394.505 396.226C407.387 383.655 408.884 364.296 397.63 352.758Z" fill="currentColor"/></symbol><symbol id="icon-close" viewBox="0 0 24 24"><path clip-rule="evenodd" d="m15.1577 12.4531 7.2993-7.29712c.9505-.95059 1.0157-2.54059.0652-3.49109-.9506-.950581-2.5252-.887081-3.4757.0635l-7.3217 7.30109-7.32929-7.28392c-.9495-.951584-2.53325-1.000001-3.484831-.0505-.951583.9495-.8904997 2.51725.059 3.46883l7.327081 7.24121-6.685 6.7456c-.946831.9542-1.005831 2.5445-.05158 3.4914.95425.9467 2.52858.877 3.47542-.0771l6.6946-6.7338 6.7356 6.751c.9457.9553 2.5293 1.0099 3.4846.0641.9553-.9457.9003-2.5137-.0455-3.4691z" fill="currentColor" fill-rule="evenodd"/></symbol><symbol id="icon-alert" width="16" height="17" viewBox="0 0 16 17" xmlns="http://www.w3.org/2000/svg"><path d="M8 .667l8 16H0l8-16zm-.613 5.546v2.12l.293 2.974h.64l.293-2.974v-2.12H7.387zm0 6.254V13.8h1.226v-1.333H7.387z" fill="#F53C3B" fill-rule="evenodd"/></symbol><symbol id="icon-tags" width="20" height="18" viewBox="0 0 20 18"><path d="M0 6.867V2.033c.033-.377.17-.686.408-.925a1.25 1.25 0 0 1 .875-.375h4.85C6.711.744 7.3.933 7.9 1.3l7.6 8.333c.222.3.336.617.342.95.005.334-.109.623-.342.867l-5.617 5.6c-.289.244-.605.37-.95.375a1.1 1.1 0 0 1-.866-.375L.917 9.083C.317 8.34.01 7.6 0 6.867zM2.45 4.95c.278.244.583.364.917.358.333-.005.616-.125.85-.358.244-.267.364-.57.358-.908a1.197 1.197 0 0 0-.358-.859 1.307 1.307 0 0 0-.909-.341c-.339.005-.625.12-.858.341-.244.29-.364.595-.358.917.005.322.125.606.358.85zM8.433.767H10.3c.411.022.82.114 1.225.275.406.16.73.375.975.641l7.15 7.984c.233.277.35.591.35.941s-.117.648-.35.892l-5.6 5.583c-.822.467-1.478.417-1.967-.15l5.484-5.483c.244-.278.364-.589.358-.933a1.265 1.265 0 0 0-.358-.884l-6.384-7.15c-.333-.422-.814-.808-1.441-1.158C9.114.975 8.678.789 8.433.767z" fill-rule="evenodd"/></symbol><symbol id="icon-embed" width="20" height="15" viewBox="0 0 20 15" use=""><path d="M19.876 7.078c.165.16.165.42 0 .58L14.772 12.6a.431.431 0 0 1-.598 0l-1.107-1.072a.4.4 0 0 1 0-.58l3.698-3.582-3.698-3.582a.4.4 0 0 1 0-.58l1.106-1.071a.446.446 0 0 1 .599 0l5.104 4.944zM6.933 10.95a.4.4 0 0 1 0 .58L5.827 12.6a.43.43 0 0 1-.599 0L.124 7.657a.401.401 0 0 1 0-.58l5.104-4.943a.43.43 0 0 1 .599 0l1.107 1.072a.403.403 0 0 1 0 .58l-3.7 3.582 3.699 3.582zM12.903.47a.397.397 0 0 1 .034.312l-4.165 13.66a.422.422 0 0 1-.526.278l-.897-.257a.42.42 0 0 1-.252-.197.398.398 0 0 1-.034-.312L11.228.294a.425.425 0 0 1 .526-.277l.897.256c.107.031.198.102.252.198z" fill-rule="nonzero"/></symbol><symbol id="icon-warning" width="16" height="17" viewBox="0 0 16 17" xmlns="http://www.w3.org/2000/svg"><path d="M8 .667l8 16H0l8-16zm-.613 5.546v2.12l.293 2.974h.64l.293-2.974v-2.12H7.387zm0 6.254V13.8h1.226v-1.333H7.387z" fill="currentColor" fill-rule="evenodd"/></symbol><symbol id="icon-download" width="16" height="16" viewBox="0 0 16 16"><path d="M0 14h16v2H0v-2zM9.947 0v6.627h3.68L8 12.787l-5.627-6.16h3.68V0h3.894z" fill="currentColor" fill-rule="evenodd"/></symbol><svg id="icon-upload" width="16" height="17" viewBox="0 0 16 17" xmlns="http://www.w3.org/2000/svg"><path d="M0 15h16v2H0v-2zm9.947-2.213V6.16h3.68L8 0 2.373 6.16h3.68v6.627h3.894z" fill="#FFF" fill-rule="evenodd"/></svg><svg id="icon-webcam" width="17" height="13" viewBox="0 0 17 13" xmlns="http://www.w3.org/2000/svg"><path d="M2 .467h8.4a2 2 0 0 1 2 2V5.68L17 .467v12.4l-4.6-5.214v3.214a2 2 0 0 1-2 2H2a2 2 0 0 1-2-2v-8.4a2 2 0 0 1 2-2z" fill="#FFF" fill-rule="evenodd"/></svg><symbol id="icon-enlarge" width="16" height="16" viewBox="0 0 16 16" xmlns="http://www.w3.org/2000/svg"><path d="M14.207 3.207L16 5V0h-5l1.793 1.793-2.5 2.5 1.414 1.414 2.5-2.5zM14 14h-3v2h5V7h-2v7zM1.5 0H0v5h2V2h7V0H1.5zM0 6h10v10H0V6zm2 8h6V8H2v6z" fill-rule="nonzero" fill="#01335B"/></symbol><symbol id="link" xmlns="http://www.w3.org/2000/svg" viewBox="0 0 24 24"><g data-name="Layer 2"><g data-name="external-link"><rect width="24" height="24" opacity="0"/><path d="M20 11a1 1 0 0 0-1 1v6a1 1 0 0 1-1 1H6a1 1 0 0 1-1-1V6a1 1 0 0 1 1-1h6a1 1 0 0 0 0-2H6a3 3 0 0 0-3 3v12a3 3 0 0 0 3 3h12a3 3 0 0 0 3-3v-6a1 1 0 0 0-1-1z"/><path d="M16 5h1.58l-6.29 6.28a1 1 0 0 0 0 1.42 1 1 0 0 0 1.42 0L19 6.42V8a1 1 0 0 0 1 1 1 1 0 0 0 1-1V4a1 1 0 0 0-1-1h-4a1 1 0 0 0 0 2z"/></g></g></symbol><symbol id="icon-rotate" xmlns="http://www.w3.org/2000/svg" viewBox="0 0 393.382 393.382"><path d="M192.411 371.663H48.103C21.379 371.663 0 350.284 0 323.561V179.252c0-26.724 21.379-48.103 48.103-48.103h144.308c26.724 0 48.103 21.379 48.103 48.103V323.56c0 26.724-21.379 48.103-48.103 48.103zM48.103 163.218c-8.552 0-16.034 7.483-16.034 16.034V323.56c0 8.552 7.483 16.034 16.034 16.034h144.308c8.552 0 16.034-7.483 16.034-16.034V179.252c0-8.552-7.483-16.034-16.034-16.034H48.103z" fill="currentColor"/><path d="M321.754 266.906c-3.207 0-5.345-1.069-8.552-2.138-7.483-4.276-9.621-14.965-5.345-22.448 31-48.103 23.517-111.171-17.103-151.791s-102.619-48.102-151.79-17.103c-7.483 4.276-17.103 2.138-22.448-5.345-4.276-7.483-2.138-17.103 5.345-22.448 60.93-38.482 140.032-29.931 191.342 21.379s59.861 129.343 21.379 191.342c-3.208 5.345-7.483 8.552-12.828 8.552z" fill="currentColor"/><path d="M315.34 287.216c-6.414 0-12.827-4.276-14.965-9.621l-25.655-61.999c-3.207-8.552 1.069-17.103 8.552-21.379 8.552-3.207 17.103 1.069 21.379 8.552l19.241 47.034 47.034-19.241c8.552-3.207 17.103 1.069 21.379 8.552 3.207 8.552-1.069 17.103-8.552 21.379l-61.999 25.655c-2.138 1.068-4.276 1.068-6.414 1.068z" fill="currentColor"/></symbol><svg id="icon-notification" fill="none" viewBox="0 0 480 480"><path clip-rule="evenodd" d="m154.164 296.009v-74.972c0-47.54 38.539-86.079 86.079-86.079s86.079 38.539 86.079 86.079v74.972zm85.769-219.6767c-79.975 0-144.8058 64.8317-144.8058 144.8057v74.871 30.442 27.974h89.3598c.265 30.401 24.982 54.967 55.446 54.967 30.463 0 55.18-24.566 55.444-54.967h89.361v-28.797-29.619-74.871c0-79.974-64.832-144.8057-144.805-144.8057z" fill="currentColor" fill-rule="evenodd"/></svg><symbol id="cogwheel" xmlns="http://www.w3.org/2000/svg" viewBox="0 0 438 438"><path d="M436.25 181.438c-1.529-2.002-3.524-3.193-5.995-3.571l-52.249-7.992c-2.854-9.137-6.756-18.461-11.704-27.98 3.422-4.758 8.559-11.466 15.41-20.129 6.851-8.661 11.703-14.987 14.561-18.986 1.523-2.094 2.279-4.281 2.279-6.567 0-2.663-.66-4.755-1.998-6.28-6.848-9.708-22.552-25.885-47.106-48.536-2.275-1.903-4.661-2.854-7.132-2.854-2.857 0-5.14.855-6.854 2.567l-40.539 30.549c-7.806-3.999-16.371-7.52-25.693-10.565l-7.994-52.529c-.191-2.474-1.287-4.521-3.285-6.139C255.95.806 253.623 0 250.954 0h-63.38c-5.52 0-8.947 2.663-10.278 7.993-2.475 9.513-5.236 27.214-8.28 53.1a163.366 163.366 0 0 0-25.981 10.853l-39.399-30.549c-2.474-1.903-4.948-2.854-7.422-2.854-4.187 0-13.179 6.804-26.979 20.413-13.8 13.612-23.169 23.841-28.122 30.69-1.714 2.474-2.568 4.664-2.568 6.567 0 2.286.95 4.57 2.853 6.851 12.751 15.42 22.936 28.549 30.55 39.403-4.759 8.754-8.47 17.511-11.132 26.265l-53.105 7.992c-2.093.382-3.9 1.621-5.424 3.715C.76 182.531 0 184.722 0 187.002v63.383c0 2.478.76 4.709 2.284 6.708 1.524 1.998 3.521 3.195 5.996 3.572l52.25 7.71c2.663 9.325 6.564 18.743 11.704 28.257-3.424 4.761-8.563 11.468-15.415 20.129-6.851 8.665-11.709 14.989-14.561 18.986-1.525 2.102-2.285 4.285-2.285 6.57 0 2.471.666 4.658 1.997 6.561 7.423 10.284 23.125 26.272 47.109 47.969 2.095 2.094 4.475 3.138 7.137 3.138 2.857 0 5.236-.852 7.138-2.563l40.259-30.553c7.808 3.997 16.371 7.519 25.697 10.568l7.993 52.529c.193 2.471 1.287 4.518 3.283 6.14 1.997 1.622 4.331 2.423 6.995 2.423h63.38c5.53 0 8.952-2.662 10.287-7.994 2.471-9.514 5.229-27.213 8.274-53.098a163.044 163.044 0 0 0 25.981-10.855l39.402 30.84c2.663 1.712 5.141 2.563 7.42 2.563 4.186 0 13.131-6.752 26.833-20.27 13.709-13.511 23.13-23.79 28.264-30.837 1.711-1.902 2.569-4.09 2.569-6.561 0-2.478-.947-4.862-2.857-7.139-13.698-16.754-23.883-29.882-30.546-39.402 3.806-7.043 7.519-15.701 11.136-25.98l52.817-7.988c2.279-.383 4.189-1.622 5.708-3.716 1.523-2.098 2.279-4.288 2.279-6.571v-63.376c.005-2.474-.751-4.707-2.278-6.707zm-165.304 89.501c-14.271 14.277-31.497 21.416-51.676 21.416-20.177 0-37.401-7.139-51.678-21.416-14.272-14.271-21.411-31.498-21.411-51.673 0-20.177 7.135-37.401 21.411-51.678 14.277-14.272 31.504-21.411 51.678-21.411 20.179 0 37.406 7.139 51.676 21.411 14.274 14.277 21.413 31.501 21.413 51.678 0 20.175-7.138 37.403-21.413 51.673z"/></symbol><symbol id="icon-my-list-add" xmlns="http://www.w3.org/2000/svg" viewBox="0 0 345 355"><path fill-rule="evenodd" clip-rule="evenodd" d="M292 31c0-16-15-29-33-29L159 1H33C15 1 1 14 1 30s14 29 32 29l126 1h100c19 0 33-13 33-29zm4 104c0-17-15-30-33-30H33c-18 0-32 13-32 29s14 29 32 29h22l208 1c19 0 33-13 33-29zm16 109h-19v-20c0-18-13-32-29-32s-30 14-30 32v20h-20c-18 0-32 13-32 29s14 29 32 29h20v20c0 18 13 33 29 33s29-15 29-33v-19h20c19 0 33-13 33-29 0-17-15-30-33-30zm-149-6c0-16-15-29-33-29H53l-20-1c-18 0-32 13-32 29 0 17 14 30 32 30h97c19 1 33-13 33-29z"/></symbol><symbol id="icon-my-list-remove" xmlns="http://www.w3.org/2000/svg" viewBox="0 0 345 355"><path d="M292 31c0-16-15-29-33-29L159 1H33C15 1 1 14 1 30s14 29 32 29l126 1h100c19 0 33-13 33-29zm4 104c0-17-15-30-33-30H33c-18 0-32 13-32 29s14 29 32 29h22l208 1c19 0 33-13 33-29zm22 152l-13-13 14-15c13-12 14-32 2-43-11-12-31-11-44 2l-14 14-14-15c-12-12-32-13-43-2-12 12-11 31 2 44l14 14-14 14c-13 13-14 32-3 44 12 11 31 10 44-3l14-13 14 14c13 13 32 14 44 2 11-11 10-31-3-44zm-155-49c0-16-15-29-33-29H53l-20-1c-18 0-32 13-32 29 0 17 14 30 32 30h97c19 1 33-13 33-29z" clip-rule="evenodd" fill-rule="evenodd"/></symbol><svg id="icon-gift" xmlns="http://www.w3.org/2000/svg" fill="none" viewBox="0 0 480 480"><path fill="currentcolor" fill-rule="evenodd" d="M97 147h290v204c0 16.569-13.431 30-30 30H127c-16.569 0-30-13.431-30-30V147Zm60 60v114h170V207H157Z" clip-rule="evenodd"/><rect width="370" height="60" x="63" y="147" fill="currentcolor" rx="30"/><path fill="currentcolor" fill-rule="evenodd" d="M174.5 82a22.501 22.501 0 0 0-15.91 38.41A22.504 22.504 0 0 0 174.5 127h47.31c-1.831-4.791-4.149-10.059-7.016-15.271C205.36 94.575 192.408 82 174.5 82Zm67.5 60c14.709-2.942 14.708-2.947 14.707-2.952l-.003-.013-.006-.029-.016-.081-.051-.241a111.27 111.27 0 0 0-.826-3.545 159.105 159.105 0 0 0-2.669-9.386c-2.42-7.643-6.286-17.993-12.055-28.482C229.89 76.925 209.091 52 174.5 52a52.5 52.5 0 0 0 0 105H242a15 15 0 0 0 14.709-17.942L242 142Z" clip-rule="evenodd"/><path fill="currentcolor" fill-rule="evenodd" d="M242.919 97.271C254.11 76.925 274.909 52 309.5 52a52.5 52.5 0 0 1 0 105H242a15 15 0 0 1-14.709-17.942L242 142c-14.709-2.942-14.708-2.947-14.707-2.952l.003-.013.006-.029.016-.081.051-.241a111.27 111.27 0 0 1 .826-3.545c.577-2.308 1.45-5.538 2.669-9.386 2.42-7.643 6.286-17.993 12.055-28.482ZM262.19 127h47.31a22.504 22.504 0 0 0 22.5-22.5A22.502 22.502 0 0 0 309.5 82c-17.908 0-30.86 12.575-40.294 29.729-2.867 5.212-5.185 10.48-7.016 15.271Zm-5.486 17.967v-.001.001Z" clip-rule="evenodd"/><path fill="currentcolor" fill-rule="evenodd" d="M126.77 56.77A67.501 67.501 0 0 1 174.5 37c31.673 0 53.429 16.926 67.5 34.593C256.071 53.926 277.827 37 309.5 37a67.501 67.501 0 0 1 47.73 115.23A67.504 67.504 0 0 1 309.5 172h-135a67.504 67.504 0 0 1-47.73-19.77 67.504 67.504 0 0 1 0-95.46ZM174.5 67a37.501 37.501 0 0 0 0 75h135a37.5 37.5 0 0 0 0-75c-26.214 0-43.097 18.699-53.437 37.5-.278.504-.55 1.008-.818 1.513a15.001 15.001 0 0 1-26.49 0 106.35 106.35 0 0 0-.818-1.513C217.597 85.699 200.714 67 174.5 67Z" clip-rule="evenodd"/><path fill="currentcolor" d="M210 152h60v188h-60z"/></svg><symbol id="copy-link" xmlns="http://www.w3.org/2000/svg" fill="none" viewBox="0 0 24 24"><path fill="currentColor" fill-rule="evenodd" d="M12.775 2.75a6 6 0 0 1 8.484 8.485l-.012.012-3 3a5.998 5.998 0 0 1-9.048-.648 1 1 0 0 1 1.602-1.198 3.998 3.998 0 0 0 6.032.432l2.993-2.994a4 4 0 0 0-5.656-5.654l-1.715 1.704a1 1 0 1 1-1.41-1.418l1.72-1.71.01-.01Z" clip-rule="evenodd"/><path fill="currentColor" fill-rule="evenodd" d="M7.9 8.373a6 6 0 0 1 6.9 2.028 1 1 0 0 1-1.6 1.198 4 4 0 0 0-6.033-.432l-2.993 2.994a4 4 0 0 0 5.655 5.655l1.704-1.703a1 1 0 1 1 1.414 1.414l-1.71 1.71-.012.012a6 6 0 0 1-8.484-8.484l.012-.012 3-3a6 6 0 0 1 2.146-1.38Z" clip-rule="evenodd"/></symbol><symbol id="check" xmlns="http://www.w3.org/2000/svg" fill="none" viewBox="0 0 24 24"><path fill="currentColor" fill-rule="evenodd" d="M20.707 5.293a1 1 0 0 1 0 1.414l-11 11a1 1 0 0 1-1.414 0l-5-5a1 1 0 1 1 1.414-1.414L9 15.586 19.293 5.293a1 1 0 0 1 1.414 0Z" clip-rule="evenodd"/></symbol><symbol id="my-list" viewBox="0 0 372 341"><path d="M140.243 85.231l47.42 43.38 51.88-56.713c15.92-17.402 43.029-18.608 60.432-2.688 17.402 15.92 18.608 43.028 2.689 60.431L184.54 258.765 74 157.643c-19.965-18.263-21.348-49.363-3.085-69.327 18.263-19.964 49.363-21.348 69.327-3.085M34.87 200.417L188.186 340.67 345.438 168.77c37.556-41.054 34.72-104.779-6.334-142.335-41.054-37.556-104.78-34.72-142.335 6.334l-12.75 13.938-4.646-4.25C135.753 2.553 68.045 5.567 28.14 49.187c-39.902 43.62-36.89 111.327 6.73 151.23" fill="currentColor" fill-rule="evenodd"/></symbol><symbol viewBox="0 0 16 16" id="arrow-left"><path fill-rule="evenodd" clip-rule="evenodd" d="m2.433 8.414 4.572 4.595c.38.382 1.009.41 1.39.031.382-.378.359-1.014-.02-1.396L6.012 9.263l2.292.007 4.211.01c.601.003 1.075-.431 1.077-.97.002-.538-.483-.977-1.085-.98L8.33 7.32l-2.054-.006 2.137-2.115c.38-.38.405-1.008.024-1.388-.38-.38-1.014-.36-1.394.02L2.433 8.415Z" fill="#fff"/></symbol><symbol id="app-home" viewBox="0 0 356 369"><path d="M104.98 310.528V156.064l73.361-73.272 72.267 72.534v155.202H104.98zm241.99-140.693L178.445.807 9.116 169.732c-11.421 11.392-12.005 30.398-.613 41.818 10.273 10.3 26.581 10.713 38.061 2.34v155.054h262.46V213.538c11.563 8.767 28.452 8.492 38.864-1.998 11.363-11.449 10.531-30.34-.918-41.705z" fill="currentColor" fill-rule="evenodd"/></symbol><symbol id="app-more" viewBox="0 0 24 24"><g data-name="Layer 2"><g data-name="more-horizotnal"><rect width="24" height="24" opacity="0"/><circle cx="12" cy="12" r="2"/><circle cx="19" cy="12" r="2"/><circle cx="5" cy="12" r="2"/></g></g></symbol><symbol id="app-play" viewBox="0 0 334 374"><path d="M74.81 230.417l47.183-43.636-52.187-56.43c-16.013-17.316-14.954-44.431 2.362-60.445 17.315-16.014 44.431-14.954 60.445 2.361l118.821 128.482-109.99 101.72C121.577 320.84 90.47 319.625 72.1 299.76c-18.37-19.864-17.156-50.971 2.71-69.343M180.803 345.03l152.552-141.081L175.174 32.906C137.396-7.943 73.656-10.433 32.807 27.345c-40.85 37.778-43.34 101.518-5.562 142.367l12.825 13.869-4.622 4.274c-43.403 40.14-46.049 107.864-5.91 151.266 40.14 43.403 107.863 46.048 151.266 5.909" fill="currentColor" fill-rule="evenodd"/></symbol><symbol id="app-search" viewBox="0 0 323 324"><path d="M145.465 231.354c-47.54 0-86.079-38.539-86.079-86.079 0-47.54 38.54-86.079 86.08-86.079s86.078 38.539 86.078 86.079c0 47.54-38.538 86.079-86.079 86.079m169.57 38.633l-32.229-33.165-14.599-15.094c13.783-22.168 21.753-48.327 21.753-76.352C289.96 65.402 225.13.57 145.154.57 65.181.57.35 65.402.35 145.376c0 79.974 64.832 144.806 144.805 144.806 28.354 0 54.8-8.157 77.131-22.24l13.872 14.402 32.05 32.98c11.255 11.538 30.82 10.701 43.702-1.869 12.882-12.571 14.38-31.93 3.125-43.468" fill="currentColor" fill-rule="evenodd"/></symbol><symbol id="app-programs" viewBox="0 0 390 356"><g fill="none" fill-rule="evenodd"><path d="M33.53 354.868C15.493 354.795.92 341.64.98 325.486c.063-16.154 14.276-29.19 32.315-29.118l100.863.334 222.435.304c18.04.073 32.613 13.228 32.551 29.382-.062 16.154-14.276 29.191-32.314 29.119l-223.423-.334-99.876-.305z" fill="currentColor"/><path fill="transparent" d="M67.155 199.903h259.169V59.212H67.155z"/><path d="M67.155 199.903h259.169V59.212H67.155v140.691zM326.324.796H8.739v257.523H384.74V.796h-58.416z" fill="currentColor"/></g></symbol><symbol id="app-logo" viewBox="0 0 512 512" fill="none" xmlns="http://www.w3.org/2000/svg"><path d="M512 0H0v512h512V0Z" fill="#14191E"/><path fill-rule="evenodd" clip-rule="evenodd" d="m287.03 381.03 12.65-32 12.45 32h-25.1Zm20.7-50.49c-1.57-3.5-4.18-5.21-7.97-5.21-3.78 0-6.51 1.84-7.9 5.32L262.58 402a9.76 9.76 0 0 0-.65 3.4c0 3.98 3.42 7.1 7.78 7.1 3.32 0 5.5-1.6 6.87-5.01l4.97-12.57h35.99l4.98 12.8c1.73 3.94 4.66 4.77 6.82 4.77 4.49 0 8.14-3.39 8.14-7.55 0-1.22-.37-2.56-.7-3.4l-29.04-71Zm80.48-5.21c-3.92 0-5.6 2.25-6.83 4.68l-.01.02-19.74 35.14-20.99-35.73c-2.16-3.68-4.63-4.11-6.3-4.11-4.38 0-7.9 4-7.9 7.32 0 1.57.48 3.21 1.36 4.61l26.1 44v23.45c0 4.8 2.94 7.8 7.67 7.8s7.67-3 7.67-7.8v-23.46l.07-.13 24.74-42.8c1.01-1.74 1.95-3.63 1.95-5.67 0-3.7-3.86-7.32-7.79-7.32Zm-142.49 72.73h-23.1v-65.23c0-4.78-2.78-7.51-7.62-7.51-4.85 0-7.63 2.73-7.63 7.5v79.55h38.35c4.7 0 7.4-2.6 7.4-7.16 0-4.54-2.7-7.15-7.4-7.15Zm-75.48-31.99h-16.77v20.07a11.18 11.18 0 0 1-22.34 0v-45.69h39.11c7.07 0 12.81 5.75 12.81 12.81 0 7.07-5.74 12.81-12.8 12.81Zm0-40.75H116v60.82a26.3 26.3 0 1 0 52.6 0v-4.94h1.64a27.94 27.94 0 1 0 0-55.88Z" fill="#00F0C8"/><path fill-rule="evenodd" clip-rule="evenodd" d="M238.32 161.16v3.66a8.8 8.8 0 1 1-17.6 0v-3.66a43.6 43.6 0 0 0-46.9-43.43c-22.16 1.66-40.21 22.1-40.21 44.33v80.19a43.6 43.6 0 0 0 46.89 43.43c22.16-1.67 40.21-22.11 40.21-44.33v-23.7h-43.55v-17.62h52.35a8.8 8.8 0 0 1 8.8 8.8v33.42a61.16 61.16 0 1 1-122.32 0v-81.1a61.16 61.16 0 0 1 122.32 0Zm35.36.03a61.16 61.16 0 0 1 122.32 0v81.1a61.16 61.16 0 0 1-122.32 0v-81.1Zm104.71 0a43.6 43.6 0 0 0-43.55-43.55 43.6 43.6 0 0 0-43.55 43.55v81.1a43.6 43.6 0 0 0 43.55 43.55 43.6 43.6 0 0 0 43.55-43.56V161.2Z" fill="#fff"/></symbol><symbol id="icon-chevron-down" viewBox="0 0 16 16" fill="none"><path fill-rule="evenodd" clip-rule="evenodd" d="M3.55688 7.05676L8.15265 11.6289L12.7348 7.0201C13.1155 6.64036 13.1348 6.00683 12.755 5.6262C12.3752 5.24556 11.7481 5.26996 11.3675 5.6498L8.15565 8.89606L4.92258 5.68723C4.54088 5.3085 3.90478 5.28493 3.52605 5.6666C3.14732 6.0483 3.17518 6.67803 3.55688 7.05676Z" fill="currentColor"/></symbol><symbol id="icon-chevron-right" class="icon" viewBox="0 0 20 20" fill="none" xmlns="http://www.w3.org/2000/svg"><path fill-rule="evenodd" clip-rule="evenodd" d="M8.84 16.35l5.71-5.75L8.8 4.87a1.24 1.24 0 00-1.74-.02c-.48.47-.45 1.26.03 1.73l4.06 4.02-4.01 4.04c-.48.48-.5 1.27-.03 1.74.48.48 1.26.44 1.74-.03z" fill="currentColor"/></symbol><symbol id="icon-chevron-left" class="icon" viewBox="0 0 20 20" fill="none" xmlns="http://www.w3.org/2000/svg"><path fill-rule="evenodd" clip-rule="evenodd" d="M11.16 16.35L5.45 10.6l5.76-5.73c.47-.47 1.27-.5 1.74-.02.48.47.45 1.26-.03 1.73L8.86 10.6l4.01 4.04c.48.48.5 1.27.03 1.74-.48.48-1.26.44-1.74-.03z" fill="currentColor"/></symbol><svg id="icon-chevron-up" width="14" height="9" viewBox="0 0 14 9" xmlns="http://www.w3.org/2000/svg"><path d="M7-.08L4.912 1.997 0 6.92l2.088 2.077L7 4.085l4.912 4.912L14 6.92 9.088 1.997z" fill="#FFF" fill-rule="evenodd"/></svg><symbol id="icon-filter" width="10" height="10" viewBox="0 0 10 10" fill="none" xmlns="http://www.w3.org/2000/svg"><path fill-rule="evenodd" clip-rule="evenodd" d="M5 4.3L3.4 2.72H6.6L5 4.31zm4.62-3.22a.92.92 0 00-.34-.22c-.14-.06-.3-.1-.47-.1H1.08c-.25 0-.5.1-.68.28a1 1 0 00.02 1.4l3.6 3.62V8.7l1.96.52-.01-3.15 3.62-3.6c.38-.38.41-1 .03-1.39z" fill="currentColor"/></symbol><symbol id="logo-play4" viewBox="0 0 468 166"><path fill-rule="evenodd" clip-rule="evenodd" d="M197.18 96.9l14.5-36.7 14.29 36.7h-28.8zM220.92 39c-1.8-4.02-4.8-5.98-9.15-5.98-4.33 0-7.47 2.11-9.06 6.1l-33.58 81.86c-.3.85-.75 2.14-.75 3.9 0 4.56 3.92 8.13 8.93 8.13 3.8 0 6.3-1.82 7.87-5.74l5.7-14.42h41.29l5.7 14.68c2 4.53 5.36 5.48 7.83 5.48 5.15 0 9.34-3.89 9.34-8.66 0-1.4-.42-2.94-.8-3.9l-33.32-81.45zm92.31-5.98c-4.5 0-6.43 2.58-7.84 5.37v.03l-22.65 40.3-24.07-40.99c-2.49-4.22-5.32-4.7-7.23-4.7-5.02 0-9.07 4.59-9.07 8.39 0 1.8.56 3.68 1.57 5.3l29.93 50.46v26.9c0 5.5 3.38 8.93 8.8 8.93 5.43 0 8.8-3.42 8.8-8.93V97.15l.08-.14 28.38-49.1c1.16-2 2.23-4.16 2.23-6.5 0-4.24-4.42-8.4-8.93-8.4zM149.8 116.43h-26.5V41.61c0-5.47-3.18-8.61-8.74-8.61-5.56 0-8.74 3.14-8.74 8.61v91.24h43.98c5.39 0 8.48-3 8.48-8.2 0-5.23-3.1-8.22-8.48-8.22zM63.22 79.74H43.97v23.02c0 7.06-5.74 12.8-12.8 12.8-7.07 0-12.81-5.74-12.81-12.8v-52.4h44.86a14.7 14.7 0 010 29.39zm0-46.74H1v69.76a30.17 30.17 0 1060.33 0V97.1h1.89a32.05 32.05 0 100-64.1z" fill="currentColor"/><path fill-rule="evenodd" clip-rule="evenodd" d="M339.8 115.02l14.64-81.43c1.48-8.29 9.54-13.82 17.98-12.36 8.44 1.46 14.08 9.36 12.59 17.65l-14.63 81.43c-1.5 8.28-9.54 13.81-17.99 12.35-8.44-1.46-14.07-9.36-12.58-17.64zM432 90.35l-11.17 62.14c-1.49 8.29-9.54 13.82-17.98 12.36-8.44-1.46-14.08-9.36-12.59-17.65l11.17-62.14c1.49-8.28 9.54-13.82 17.98-12.35a15.26 15.26 0 0112.59 17.64zm.8 20.26a9.96 9.96 0 0111.56-7.95 9.8 9.8 0 018.1 11.35l-1.93 10.71a9.96 9.96 0 01-11.56 7.94 9.81 9.81 0 01-8.09-11.34l1.93-10.71zm-43.32 16l2.7-15a7.63 7.63 0 00-6.3-8.83 7.75 7.75 0 00-9 6.18l-2.69 15a7.63 7.63 0 006.3 8.82 7.75 7.75 0 008.99-6.18z"/></symbol><symbol id="logo-play5" viewBox="0 0 454 166"><path fill-rule="evenodd" clip-rule="evenodd" d="M196.18 96.9l14.5-36.7 14.29 36.7h-28.8zM219.92 39c-1.8-4.02-4.8-5.99-9.15-5.99-4.33 0-7.47 2.11-9.06 6.1l-33.58 81.86c-.3.85-.75 2.14-.75 3.9 0 4.56 3.92 8.13 8.93 8.13 3.8 0 6.3-1.82 7.87-5.74l5.7-14.42h41.29l5.7 14.68c2 4.53 5.36 5.48 7.83 5.48 5.15 0 9.34-3.89 9.34-8.66 0-1.4-.42-2.93-.8-3.9l-33.32-81.45zM312.23 33c-4.5 0-6.43 2.58-7.84 5.38v.02l-22.65 40.3-24.07-40.98c-2.49-4.23-5.32-4.72-7.23-4.72-5.02 0-9.07 4.6-9.07 8.4 0 1.8.56 3.68 1.57 5.3l29.93 50.46v26.9c0 5.5 3.38 8.93 8.8 8.93 5.43 0 8.8-3.42 8.8-8.93V97.15l.08-.14 28.38-49.1c1.16-2 2.23-4.16 2.23-6.5 0-4.24-4.42-8.4-8.93-8.4zM148.8 116.43h-26.5V41.61c0-5.47-3.18-8.61-8.74-8.61-5.56 0-8.74 3.14-8.74 8.61v91.24h43.98c5.39 0 8.48-3 8.48-8.2 0-5.22-3.1-8.22-8.48-8.22zM62.22 79.75H42.97v23.01c0 7.06-5.74 12.8-12.8 12.8-7.07 0-12.81-5.74-12.81-12.8v-52.4h44.86c8.1 0 14.7 6.59 14.7 14.7 0 8.1-6.6 14.69-14.7 14.69zm0-46.75H0v69.76a30.17 30.17 0 1060.33 0V97.1h1.89a32.05 32.05 0 100-64.1z" fill="currentColor"/><path fill-rule="evenodd" clip-rule="evenodd" d="M416.04 66.7h-37.28v-6.55h54.9a16.57 16.57 0 000-33.15h-83.03v72.21h73.35v6.54h-68.84a16.58 16.58 0 000 33.15h60.9a36.1 36.1 0 100-72.2z"/></symbol><symbol id="logo-play6" viewBox="0 0 434 166"><path fill-rule="evenodd" clip-rule="evenodd" d="M196.176 96.9045L210.68 60.1915L224.967 96.9045H196.176ZM219.924 38.9905C218.116 34.9745 215.12 33.0135 210.774 33.0135C206.437 33.0135 203.302 35.1225 201.708 39.1125L168.13 120.967C167.831 121.82 167.379 123.115 167.379 124.876C167.379 129.431 171.302 133.001 176.31 133.001C180.115 133.001 182.617 131.176 184.184 127.26L189.882 112.84H231.167L236.879 127.517C238.863 132.049 242.227 133.001 244.702 133.001C249.848 133.001 254.036 129.113 254.036 124.338C254.036 122.939 253.621 121.405 253.232 120.436L219.924 38.9905ZM312.231 33.0135C307.725 33.0135 305.801 35.5935 304.394 38.3835L304.381 38.4075L281.739 78.7145L257.668 37.7235C255.184 33.5025 252.352 33.0135 250.438 33.0135C245.416 33.0135 241.372 37.6065 241.372 41.4075C241.372 43.2115 241.928 45.0915 242.938 46.7025L272.874 97.1745V124.068C272.874 129.578 276.245 133.001 281.672 133.001C287.098 133.001 290.469 129.578 290.469 124.068V97.1505L290.552 97.0085L318.93 47.9065C320.09 45.9175 321.163 43.7545 321.163 41.4075C321.163 37.1725 316.739 33.0135 312.231 33.0135ZM148.792 116.432H122.298V41.6125C122.298 36.1375 119.111 33.0005 113.552 33.0005C107.994 33.0005 104.806 36.1375 104.806 41.6125V132.85H148.792C154.179 132.85 157.269 129.858 157.269 124.642C157.269 119.426 154.179 116.432 148.792 116.432ZM62.218 79.7445H42.974V102.76C42.974 109.822 37.229 115.568 30.166 115.568C23.104 115.568 17.359 109.822 17.359 102.76V50.3595H62.218C70.321 50.3595 76.912 56.9495 76.912 65.0505C76.912 73.1545 70.321 79.7445 62.218 79.7445ZM62.218 33.0005H0V102.76C0 119.422 13.506 132.927 30.166 132.927H30.167C46.827 132.927 60.333 119.422 60.333 102.76V97.1035H62.218C79.921 97.1035 94.271 82.7545 94.271 65.0505C94.271 47.3495 79.921 33.0005 62.218 33.0005Z" fill="currentColor"/><path fill-rule="evenodd" clip-rule="evenodd" d="M400.377 55.4611L393.842 66.3431C409.796 70.9371 421.467 85.6441 421.467 103.076C421.467 124.185 404.355 141.297 383.245 141.297C362.137 141.297 345.023 124.185 345.023 103.076C345.023 95.7241 347.101 88.8561 350.698 83.0271L350.694 83.0251L391.161 15.6391H376.742L340.047 76.7451L340.048 76.7461C335.361 84.4171 332.656 93.4291 332.656 103.076C332.656 131.016 355.306 153.666 383.245 153.666C411.186 153.666 433.835 131.016 433.835 103.076C433.835 81.1491 419.886 62.4811 400.377 55.4611ZM357.138 88.2761C354.655 92.6461 353.229 97.6911 353.229 103.076C353.229 119.654 366.668 133.092 383.245 133.092C399.823 133.092 413.262 119.654 413.262 103.076C413.262 88.6171 403.038 76.5461 389.426 73.6971L382.387 85.4401C382.672 85.4271 382.958 85.4201 383.245 85.4201C392.996 85.4201 400.9 93.3251 400.9 103.076C400.9 112.827 392.996 120.732 383.245 120.732C373.494 120.732 365.59 112.827 365.59 103.076C365.59 99.5251 366.638 96.2201 368.44 93.4521L368.433 93.4471L419.745 8.00012H405.327L357.124 88.2691L357.138 88.2761Z"/></symbol><symbol id="logo-play7" viewBox="0 0 431 166" xmlns="http://www.w3.org/2000/svg"><path fill-rule="evenodd" clip-rule="evenodd" d="M196.176 96.906L210.68 60.191L224.967 96.906H196.176ZM219.924 38.992C218.116 34.976 215.12 33.014 210.774 33.014C206.437 33.014 203.302 35.123 201.708 39.114L168.13 120.966C167.831 121.82 167.379 123.115 167.379 124.876C167.379 129.431 171.302 133 176.31 133C180.115 133 182.617 131.177 184.184 127.261L189.882 112.839H231.167L236.879 127.517C238.863 132.049 242.227 133 244.702 133C249.848 133 254.036 129.114 254.036 124.337C254.036 122.939 253.621 121.406 253.232 120.436L219.924 38.992ZM312.231 33.014C307.725 33.014 305.801 35.595 304.394 38.384L304.381 38.408L281.739 78.715L257.668 37.725C255.184 33.502 252.352 33.014 250.438 33.014C245.416 33.014 241.372 37.607 241.372 41.409C241.372 43.211 241.928 45.092 242.938 46.703L272.874 97.174V124.068C272.874 129.578 276.245 133 281.672 133C287.098 133 290.469 129.578 290.469 124.068V97.151L290.552 97.01L318.93 47.907C320.09 45.917 321.163 43.754 321.163 41.409C321.163 37.172 316.739 33.014 312.231 33.014ZM148.792 116.433H122.298V41.612C122.298 36.139 119.111 33 113.552 33C107.994 33 104.806 36.139 104.806 41.612V132.85H148.792C154.179 132.85 157.269 129.858 157.269 124.642C157.269 119.426 154.179 116.433 148.792 116.433ZM62.218 79.745H42.974V102.76C42.974 109.823 37.229 115.568 30.166 115.568C23.104 115.568 17.359 109.823 17.359 102.76V50.359H62.218C70.321 50.359 76.912 56.95 76.912 65.052C76.912 73.154 70.321 79.745 62.218 79.745ZM62.218 33H0V102.76C0 119.421 13.506 132.927 30.166 132.927H30.167C46.827 132.927 60.333 119.421 60.333 102.76V97.104H62.218C79.921 97.104 94.271 82.754 94.271 65.052C94.271 47.35 79.921 33 62.218 33Z" fill="currentColor"/><path fill-rule="evenodd" clip-rule="evenodd" d="M424.769 23C421.479 48.092 391.14 52.99 375.774 52.99C356.988 52.99 341.162 48.408 341.163 36.19C341.163 26.742 349.756 23 356.523 23H424.769ZM403.11 58.4542C416.853 49.3994 428.557 41.6885 429.434 23.6409C433.685 43.8669 425.112 56.7329 415.249 71.5337C406.09 85.28 395.818 100.695 393.675 125.226C392.71 136.266 383.833 142.95 374.586 141.891C364.818 140.772 357.246 132.357 359.389 120.267C366.011 82.896 386.119 69.6482 403.11 58.4542Z"/></symbol><symbol id="logo-streamz" viewBox="0 0 789 166" fill="none" xmlns="http://www.w3.org/2000/svg"><path fill-rule="evenodd" clip-rule="evenodd" d="M165.144 71.6365H0V51.3638H165.542C164.206 54.5729 163.479 58.1441 163.479 62.0289C163.479 65.7123 164.077 68.885 165.144 71.6365Z" fill="#F8D241"/><path fill-rule="evenodd" clip-rule="evenodd" d="M165.896 71.6365H165.146C164.079 68.885 163.48 65.7123 163.48 62.0289C163.48 58.1441 164.208 54.5729 165.544 51.3638H166.29C164.956 54.5759 164.229 58.1365 164.229 62.0304C164.229 65.7123 164.82 68.8789 165.896 71.6365Z" fill="#F8D241"/><path fill-rule="evenodd" clip-rule="evenodd" d="M200.036 92.3771H0V71.6362H165.144C170.465 85.3544 187.441 88.612 200.036 92.3771Z" fill="#DB315D"/><path fill-rule="evenodd" clip-rule="evenodd" d="M200.771 92.3771H200.035C187.44 88.612 170.464 85.3544 165.143 71.6362H165.893V71.6514C171.226 85.3483 188.18 88.6059 200.771 92.3771Z" fill="#DB315D"/><path fill-rule="evenodd" clip-rule="evenodd" d="M197.971 114.141C187.77 113.979 180.356 108.873 177.362 100.452L159.674 110.723C159.974 111.399 160.294 112.062 160.63 112.712H0V92.3774H200.036C208.277 94.8426 214.642 97.5229 214.642 103.494C214.642 110.937 207.908 114.009 199.07 114.141L199.015 114.137C198.879 114.137 198.742 114.137 198.606 114.121C198.439 114.137 198.258 114.137 198.076 114.137L197.971 114.141Z" fill="#B9234A"/><path fill-rule="evenodd" clip-rule="evenodd" d="M199.212 114.153L199.069 114.141C207.907 114.009 214.642 110.937 214.642 103.494C214.642 97.5229 208.277 94.8426 200.036 92.3774H200.772C209.015 94.8487 215.378 97.5305 215.378 103.5C215.378 111.106 208.348 114.153 199.212 114.153ZM197.727 114.153C187.56 114.153 180.106 109.288 176.894 101.152L160.424 110.727C160.727 111.394 161.045 112.061 161.378 112.712H160.63C160.294 112.062 159.974 111.399 159.674 110.723L177.362 100.452C180.356 108.873 187.769 113.979 197.971 114.141L197.727 114.153Z" fill="#B9234A"/><path fill-rule="evenodd" clip-rule="evenodd" d="M198.939 133H0V112.712H160.63C167.126 125.241 180.394 132.976 198.474 132.976C198.626 132.976 198.776 132.976 198.926 132.974L198.939 133Z" fill="#DA2D46"/><path fill-rule="evenodd" clip-rule="evenodd" d="M198.473 132.976C180.393 132.976 167.124 125.241 160.629 112.712H161.377C167.817 125.121 180.893 132.833 198.711 132.969H198.923L198.924 132.974C198.774 132.976 198.624 132.976 198.473 132.976Z" fill="#DA2D46"/><path fill-rule="evenodd" clip-rule="evenodd" d="M165.542 51.3642H0V32.9551H196.655C182.192 33.4293 170.188 40.2187 165.542 51.3642Z" fill="#DF5431"/><path fill-rule="evenodd" clip-rule="evenodd" d="M166.288 51.3642H165.543C170.188 40.2187 182.193 33.4293 196.655 32.9551H197.228C182.849 33.4854 170.91 40.2581 166.288 51.3642Z" fill="#DF5431"/><path fill-rule="evenodd" clip-rule="evenodd" d="M265.155 8.771L244.614 14.8574V100.832C244.614 125.557 257.167 134.307 288.74 130.504V112.053C273.144 112.815 265.155 113.004 265.155 100.832V55.1816H288.74V35.3998H265.155V8.771ZM184.4 61.6488C184.4 54.8018 190.866 51.5685 198.284 51.5685C206.083 51.5685 212.739 54.9928 216.162 62.4094L233.471 52.7094C226.815 40.1564 213.88 32.9276 198.284 32.9276C178.883 32.9276 163.478 44.1488 163.478 62.0291C163.478 81.9975 181.076 86.9834 195.63 91.107C205.893 94.0147 214.642 96.4937 214.642 103.494C214.642 111.103 207.604 114.146 198.474 114.146C188.013 114.146 180.406 109.011 177.362 100.452L159.674 110.723C165.76 124.417 179.454 132.976 198.474 132.976C219.016 132.976 235.563 122.705 235.563 103.685C235.563 83.003 217.888 78.0908 203.315 74.041C193.094 71.2005 184.4 68.7842 184.4 61.6488ZM322.334 51.3775C328.04 38.4442 339.643 33.6881 351.625 33.6881V55.9427C338.122 54.9927 322.334 61.2684 322.334 82.5715V130.505H301.793V35.4003H322.334V51.3775ZM372.652 74.9624C375.505 60.6973 385.966 51.567 401.372 51.567C413.734 51.567 425.717 58.6049 428.571 74.9624H372.652ZM401.563 32.9276C371.701 32.9276 351.349 54.8018 351.349 82.9518C351.349 111.484 371.701 132.976 403.084 132.976C421.724 132.976 435.989 125.178 444.737 112.244L427.81 102.352C423.245 109.011 414.686 114.146 403.274 114.146C388.058 114.146 376.075 106.538 372.842 91.7003H448.542C448.922 89.0382 449.302 85.9958 449.302 83.1428C449.302 55.7534 429.902 32.9276 401.563 32.9276ZM786.356 49.094L742.041 111.103H788.257V130.505H714.08V116.808L758.586 54.8016H715.982V35.4001H786.356V49.094ZM665.247 30.9242C653.811 30.9242 643.702 36.5802 636.688 42.8151C629.693 36.5802 619.629 30.9242 608.256 30.9242C584.885 30.9242 569.182 44.6423 569.182 65.056V130.504H590.43V68.7999C590.43 61.6908 593.523 50.9833 608.256 50.9833C622.991 50.9833 626.083 61.6908 626.083 68.7999V130.504H647.42V68.7999C647.42 61.6908 650.512 50.9833 665.247 50.9833C679.98 50.9833 683.074 61.6908 683.074 68.7999V130.504H704.179V65.056C704.179 44.6423 688.534 30.9242 665.247 30.9242ZM508.126 113.02H508.127C524.873 113.02 537.814 100.268 537.814 82.9517C537.814 65.6335 524.871 52.885 508.126 52.885C491.38 52.885 478.441 65.6335 478.441 82.9517C478.441 100.268 491.38 113.02 508.126 113.02ZM508.126 32.9032C536.098 32.9032 558.314 53.9502 558.314 82.3047V130.526H537.762V120.746C529.482 127.961 519.256 133 508.126 133C480.342 133 457.889 111.117 457.889 82.9517C457.889 54.5971 480.342 32.9032 508.126 32.9032Z" fill="#FFFFFE"/><path fill-rule="evenodd" clip-rule="evenodd" d="M165.546 51.3638L165.527 51.4077L165.546 51.3638Z" fill="#DF5431"/></symbol><symbol id="logo" fill="none" viewBox="0 0 139 28"><clipPath id="a"><path d="m0 0h138.32v28h-138.32z"/></clipPath><g clip-path="url(#a)" clip-rule="evenodd" fill-rule="evenodd"><path d="m102.017 17.8946 4.215-10.27966 4.152 10.27966zm6.901-16.21594c-.525-1.124475-1.396-1.67355516-2.659-1.67355516-1.26 0-2.171.59080016-2.634 1.70771516l-9.7577 22.91908c-.0868.2389-.2182.6018-.2182 1.0946 0 1.2754 1.14 2.275 2.5955 2.275 1.1052 0 1.8325-.511 2.2878-1.6075l1.6556-4.0376h11.997l1.66 4.1095c.577 1.269 1.554 1.5356 2.273 1.5356 1.496 0 2.713-1.0884 2.713-2.4257 0-.3917-.121-.8212-.234-1.0925zm26.823-1.67355516c-1.309 0-1.868.72240016-2.277 1.50359516l-.004.00672-6.579 11.28598-6.995-11.4775c-.722-1.181875-1.544-1.31879516-2.101-1.31879516-1.459 0-2.634 1.28603516-2.634 2.35031516 0 .50512.161 1.03152.455 1.4826l8.699 14.13218v7.53c0 1.5428.979 2.5013 2.556 2.5013s2.557-.9585 2.557-2.5013v-7.5367l.024-.0398 8.246-13.74856c.337-.55692.649-1.16256.649-1.81972 0-1.1858-1.286-2.35031516-2.596-2.35031516zm-47.4931 23.35699516h-7.6988v-20.94928c0-1.532995-.9261-2.41135516-2.5415-2.41135516-1.6151 0-2.5415.87836016-2.5415 2.41135516v25.54638h12.7818c1.5654 0 2.4634-.8378 2.4634-2.2983 0-1.4604-.898-2.2988-2.4634-2.2988zm-25.1573-10.2723h-5.5921v6.4442c0 1.9776-1.6694 3.5862-3.7216 3.5862-2.0524 0-3.7218-1.6086-3.7218-3.5862v-14.67202h13.0355c2.3546 0 4.2699 1.8452 4.2699 4.11348 0 2.26914-1.9153 4.11434-4.2699 4.11434zm0-13.08833516h-18.0799v19.53253516c0 4.6653 3.9247 8.4467 8.7662 8.4467 4.8412 0 8.7659-3.7814 8.7659-8.4467v-1.5837h.5478c5.1442 0 9.3142-4.0177 9.3142-8.97484 0-4.95628-4.17-8.97399516-9.3142-8.97399516z" fill="#00f0c8"/><path d="m17.4585 8.4112v.50372c0 .66864-.5625 1.21068-1.2565 1.21068-.6939 0-1.2565-.54204-1.2565-1.21068v-.50372c0-3.45464-3.0511-6.2356-6.69309-5.9724-3.16276.22848-5.7394 3.04024-5.7394 6.09616v11.02864c0 3.4546 3.05088 6.2356 6.69311 5.9724 3.16278-.2285 5.73938-3.0402 5.73938-6.0962v-3.2606h-6.21623v-2.4214h7.47273c.694 0 1.2565.5421 1.2565 1.2107v4.5951c0 4.6455-3.9084 8.4112-8.72923 8.4112h-.00029c-4.82086 0-8.72898-3.7657-8.72898-8.4112v-11.1524c0-4.64548 3.90812-8.4112 8.72898-8.4112h.00029c4.82083 0 8.72923 3.76572 8.72923 8.4112zm5.0475.00468c0-4.6452 3.9084-8.41119738 8.7293-8.41119738 4.8211 0 8.7292 3.76599738 8.7292 8.41119738v11.15242c0 4.6452-3.9081 8.4112-8.7292 8.4112-4.8209 0-8.7293-3.766-8.7293-8.4112zm14.9455 0c0-3.3026-2.7888-5.98976-6.2162-5.98976-3.4275 0-6.2163 2.68716-6.2163 5.98976v11.15242c0 3.3029 2.7888 5.9897 6.2163 5.9897 3.4274 0 6.2162-2.6868 6.2162-5.9897z" fill="currentcolor"/></g></symbol></svg>