<svg width="431" height="166" viewBox="0 0 431 166" fill="none" xmlns="http://www.w3.org/2000/svg">
    <path fill-rule="evenodd" clip-rule="evenodd" d="M196.176 96.906L210.68 60.191L224.967 96.906H196.176ZM219.924 38.992C218.116 34.976 215.12 33.014 210.774 33.014C206.437 33.014 203.302 35.123 201.708 39.114L168.13 120.966C167.831 121.82 167.379 123.115 167.379 124.876C167.379 129.431 171.302 133 176.31 133C180.115 133 182.617 131.177 184.184 127.261L189.882 112.839H231.167L236.879 127.517C238.863 132.049 242.227 133 244.702 133C249.848 133 254.036 129.114 254.036 124.337C254.036 122.939 253.621 121.406 253.232 120.436L219.924 38.992ZM312.231 33.014C307.725 33.014 305.801 35.595 304.394 38.384L304.381 38.408L281.739 78.715L257.668 37.725C255.184 33.502 252.352 33.014 250.438 33.014C245.416 33.014 241.372 37.607 241.372 41.409C241.372 43.211 241.928 45.092 242.938 46.703L272.874 97.174V124.068C272.874 129.578 276.245 133 281.672 133C287.098 133 290.469 129.578 290.469 124.068V97.151L290.552 97.01L318.93 47.907C320.09 45.917 321.163 43.754 321.163 41.409C321.163 37.172 316.739 33.014 312.231 33.014ZM148.792 116.433H122.298V41.612C122.298 36.139 119.111 33 113.552 33C107.994 33 104.806 36.139 104.806 41.612V132.85H148.792C154.179 132.85 157.269 129.858 157.269 124.642C157.269 119.426 154.179 116.433 148.792 116.433ZM62.218 79.745H42.974V102.76C42.974 109.823 37.229 115.568 30.166 115.568C23.104 115.568 17.359 109.823 17.359 102.76V50.359H62.218C70.321 50.359 76.912 56.95 76.912 65.052C76.912 73.154 70.321 79.745 62.218 79.745ZM62.218 33H0V102.76C0 119.421 13.506 132.927 30.166 132.927H30.167C46.827 132.927 60.333 119.421 60.333 102.76V97.104H62.218C79.921 97.104 94.271 82.754 94.271 65.052C94.271 47.35 79.921 33 62.218 33Z" fill="white"/>
    <path fill-rule="evenodd" clip-rule="evenodd" d="M424.769 23C421.479 48.092 391.14 52.99 375.774 52.99C356.988 52.99 341.162 48.408 341.163 36.19C341.163 26.742 349.756 23 356.523 23H424.769ZM403.11 58.4542C416.853 49.3994 428.557 41.6885 429.434 23.6409C433.685 43.8669 425.112 56.7329 415.249 71.5337C406.09 85.28 395.818 100.695 393.675 125.226C392.71 136.266 383.833 142.95 374.586 141.891C364.818 140.772 357.246 132.357 359.389 120.267C366.011 82.896 386.119 69.6482 403.11 58.4542Z" fill="#821EFF"/>
</svg>