<svg width="477" height="166" viewBox="0 0 477 166" fill="none" xmlns="http://www.w3.org/2000/svg"><path fill-rule="evenodd" clip-rule="evenodd" d="M351.07 96.9l14.5-36.7 14.3 36.7h-28.8zM374.82 39c-1.8-4.02-4.8-5.98-9.15-5.98-4.34 0-7.47 2.1-9.07 6.1l-33.58 81.85c-.3.85-.75 2.15-.75 3.9 0 4.56 3.93 8.13 8.94 8.13 3.8 0 6.3-1.82 7.87-5.74l5.7-14.42h41.28l5.71 14.68c1.99 4.53 5.35 5.48 7.83 5.48 5.14 0 9.33-3.88 9.33-8.66 0-1.4-.41-2.93-.8-3.9l-33.31-81.45zm92.3-5.98c-4.5 0-6.42 2.58-7.83 5.37l-.01.02-22.65 40.3-24.07-40.98c-2.48-4.22-5.31-4.71-7.23-4.71-5.02 0-9.06 4.59-9.06 8.4 0 1.8.55 3.68 1.56 5.29l29.94 50.47v26.9c0 5.5 3.37 8.92 8.8 8.92 5.42 0 8.8-3.42 8.8-8.93V97.15l.08-.14 28.38-49.1c1.16-1.99 2.23-4.15 2.23-6.5 0-4.23-4.43-8.4-8.93-8.4zM303.7 116.43h-26.5V41.63c0-5.48-3.18-8.62-8.74-8.62-5.56 0-8.75 3.14-8.75 8.62v91.23h43.99c5.38 0 8.47-2.99 8.47-8.2 0-5.22-3.09-8.22-8.47-8.22zM217.1 79.75h-19.24v23.01c0 7.07-5.75 12.81-12.8 12.81-7.07 0-12.82-5.74-12.82-12.8v-52.4h44.86c8.1 0 14.7 6.58 14.7 14.68s-6.6 14.7-14.7 14.7zm0-46.75H154.9v69.76a30.17 30.17 0 1060.34 0v-5.65h1.88a32.05 32.05 0 100-64.1z" fill="#00F0C8"/><path fill-rule="evenodd" clip-rule="evenodd" d="M60.08 63.04v1.8a4.32 4.32 0 01-8.65 0v-1.8A21.42 21.42 0 0028.4 41.71c-10.88.82-19.75 10.86-19.75 21.77v39.39a21.41 21.41 0 0023.03 21.33c10.88-.82 19.75-10.86 19.75-21.77V90.78H30.04v-8.64h25.72a4.32 4.32 0 014.32 4.32v16.41a30.04 30.04 0 11-60.08 0V63.04a30.04 30.04 0 0160.08 0zm17.37.02a30.04 30.04 0 0160.08 0v39.83a30.04 30.04 0 01-60.08 0V63.06zm51.43 0c0-11.8-9.6-21.4-21.39-21.4-11.8 0-21.4 9.6-21.4 21.4v39.83c0 11.8 9.6 21.39 21.4 21.39 11.8 0 21.4-9.6 21.4-21.4V63.07z" fill="#fff"/></svg>